<svg width="32" height="32" viewBox="0 0 32 32" fill="none" xmlns="http://www.w3.org/2000/svg">
<path d="M29.475 1.35624C28.1063 -0.0125061 25.8937 -0.0125061 24.525 1.35624L22.6437 3.23124L28.7625 9.34999L30.6437 7.46874C32.0125 6.09999 32.0125 3.88749 30.6437 2.51874L29.475 1.35624ZM10.775 15.1062C10.3937 15.4875 10.1 15.9562 9.93125 16.475L8.08125 22.025C7.9 22.5625 8.04375 23.1562 8.44375 23.5625C8.84375 23.9687 9.4375 24.1062 9.98125 23.925L15.5312 22.075C16.0438 21.9062 16.5125 21.6125 16.9 21.2312L27.3563 10.7687L21.2313 4.64374L10.775 15.1062ZM6 3.99999C2.6875 3.99999 0 6.68749 0 9.99999V26C0 29.3125 2.6875 32 6 32H22C25.3125 32 28 29.3125 28 26V20C28 18.8937 27.1063 18 26 18C24.8937 18 24 18.8937 24 20V26C24 27.1062 23.1063 28 22 28H6C4.89375 28 4 27.1062 4 26V9.99999C4 8.89374 4.89375 7.99999 6 7.99999H12C13.1062 7.99999 14 7.10624 14 5.99999C14 4.89374 13.1062 3.99999 12 3.99999H6Z" fill="#4f5257"/>
</svg>
